<?xml version="1.0" encoding="UTF-8" standalone="no"?>
<!-- Created with Inkscape (http://www.inkscape.org/) -->

<svg
   xmlns:dc="http://purl.org/dc/elements/1.1/"
   xmlns:cc="http://creativecommons.org/ns#"
   xmlns:rdf="http://www.w3.org/1999/02/22-rdf-syntax-ns#"
   xmlns:svg="http://www.w3.org/2000/svg"
   xmlns="http://www.w3.org/2000/svg"
   xmlns:xlink="http://www.w3.org/1999/xlink"
   version="1.1"
   width="96"
   height="96"
   id="svg2">
  <defs
     id="defs4">
    <linearGradient
       id="linearGradient3883">
      <stop
         id="stop3885"
         style="stop-color:#00ff00;stop-opacity:1"
         offset="0" />
      <stop
         id="stop3887"
         style="stop-color:#00ff00;stop-opacity:0.78431374"
         offset="1" />
    </linearGradient>
    <linearGradient
       id="linearGradient7191">
      <stop
         id="stop7193"
         style="stop-color:#00ff00;stop-opacity:1"
         offset="0" />
      <stop
         id="stop7195"
         style="stop-color:#006500;stop-opacity:1"
         offset="1" />
    </linearGradient>
    <linearGradient
       id="linearGradient7130">
      <stop
         id="stop7132"
         style="stop-color:#00ff00;stop-opacity:1"
         offset="0" />
      <stop
         id="stop7134"
         style="stop-color:#00ff00;stop-opacity:0.7846154"
         offset="1" />
    </linearGradient>
    <linearGradient
       id="linearGradient7075">
      <stop
         id="stop7077"
         style="stop-color:#00ff00;stop-opacity:1"
         offset="0" />
    </linearGradient>
    <linearGradient
       id="linearGradient7069">
      <stop
         id="stop7071"
         style="stop-color:#000000;stop-opacity:1"
         offset="0" />
    </linearGradient>
    <linearGradient
       id="linearGradient5617">
      <stop
         id="stop5619"
         style="stop-color:#00ff00;stop-opacity:0.77692306"
         offset="0" />
      <stop
         id="stop5621"
         style="stop-color:#00ff00;stop-opacity:0"
         offset="1" />
    </linearGradient>
    <linearGradient
       id="linearGradient5566">
      <stop
         id="stop5568"
         style="stop-color:#00ff00;stop-opacity:1"
         offset="0" />
      <stop
         id="stop5570"
         style="stop-color:#00ff00;stop-opacity:0.7846154"
         offset="1" />
    </linearGradient>
    <linearGradient
       id="linearGradient3811">
      <stop
         id="stop3813"
         style="stop-color:#000000;stop-opacity:1"
         offset="0" />
      <stop
         id="stop3815"
         style="stop-color:#000000;stop-opacity:0.58823532"
         offset="1" />
    </linearGradient>
    <filter
       color-interpolation-filters="sRGB"
       id="filter3799">
      <feGaussianBlur
         id="feGaussianBlur3801"
         stdDeviation="2.125" />
    </filter>
    <radialGradient
       cx="65.861969"
       cy="979.21265"
       r="33.959488"
       fx="65.861969"
       fy="979.21265"
       id="radialGradient3859"
       xlink:href="#linearGradient7191"
       gradientUnits="userSpaceOnUse"
       gradientTransform="matrix(-3.9255828,1.0518571,-0.84411413,-3.1502765,1149.0197,3992.299)" />
    <linearGradient
       x1="50"
       y1="52"
       x2="49.959759"
       y2="6.6488934"
       id="linearGradient4416"
       xlink:href="#linearGradient3811"
       gradientUnits="userSpaceOnUse"
       gradientTransform="translate(0.1219651,956.36218)" />
    <linearGradient
       x1="50"
       y1="52"
       x2="49.959759"
       y2="6.6488934"
       id="linearGradient3801"
       xlink:href="#linearGradient3811"
       gradientUnits="userSpaceOnUse"
       gradientTransform="translate(0.1219651,956.36218)" />
    <linearGradient
       x1="50"
       y1="52"
       x2="49.959759"
       y2="6.6488934"
       id="linearGradient4322"
       xlink:href="#linearGradient3811"
       gradientUnits="userSpaceOnUse"
       gradientTransform="translate(0.1219651,956.36218)" />
    <radialGradient
       cx="65.861969"
       cy="979.21265"
       r="33.959488"
       fx="65.861969"
       fy="979.21265"
       id="radialGradient4324"
       xlink:href="#linearGradient7191"
       gradientUnits="userSpaceOnUse"
       gradientTransform="matrix(-3.9255828,1.0518571,-0.84411413,-3.1502765,1149.0197,3992.299)" />
    <radialGradient
       cx="65.861969"
       cy="979.21265"
       r="33.959488"
       fx="65.861969"
       fy="979.21265"
       id="radialGradient4341"
       xlink:href="#linearGradient7191"
       gradientUnits="userSpaceOnUse"
       gradientTransform="matrix(-3.9255828,1.0518571,-0.84411413,-3.1502765,1149.0197,3992.299)" />
  </defs>
  <metadata
     id="metadata7">
    <rdf:RDF>
      <cc:Work
         rdf:about="">
        <dc:format>image/svg+xml</dc:format>
        <dc:type
           rdf:resource="http://purl.org/dc/dcmitype/StillImage" />
        <dc:title></dc:title>
      </cc:Work>
    </rdf:RDF>
  </metadata>
  <g
     transform="translate(0,-956.36218)"
     id="layer1">
    <g
       transform="translate(-0.0427091,-0.00109518)"
       id="g3797">
      <rect
         width="85"
         height="85"
         rx="6"
         ry="6"
         x="7.5855131"
         y="963.94165"
         id="rect3797"
         style="opacity:0.5;fill:#000000;fill-opacity:1;stroke:none;filter:url(#filter3799)" />
      <path
         d="m 11.121965,962.36218 c 24.53813,0.0206 49.078321,-0.0411 73.615161,0.0309 3.787699,0.25368 5.911498,4.17549 5.384839,7.65205 -0.02055,23.97716 0.04112,47.95637 -0.03086,71.93217 -0.253684,3.7877 -4.175495,5.9115 -7.65205,5.3849 -23.977159,-0.021 -47.956378,0.041 -71.932247,-0.031 -3.7876989,-0.2537 -5.9114978,-4.1755 -5.3848391,-7.652 0.020554,-23.9772 -0.041123,-47.95638 0.030864,-71.93225 0.2430537,-2.98838 2.970815,-5.44848 5.9691361,-5.38484 z"
         id="rect3027"
         style="fill:url(#linearGradient4322);fill-opacity:1;stroke:none" />
    </g>
    <g
       transform="translate(-109.83109,-4.049024)"
       id="g4333">
      <path
         d="m 140.94428,971.49495 c -2.43203,0.14673 -4.68079,0.91412 -6.3125,2.6875 -2.23002,2.42365 -3.08329,5.99718 -3.1875,9.9375 -0.10421,3.94032 0.56011,8.26361 1.46875,12.3125 1.63362,7.27935 3.8601,12.94725 4.34375,14.15625 l -12.46875,-0.5312 c -0.58815,-0.071 -0.85954,0.9599 -0.3125,1.1874 l 25.21875,12 c 0.28017,0.1379 0.6583,0.021 0.8125,-0.25 l 13.53125,-23.0937 c 0.2465,-0.47692 -0.41762,-1.0936 -0.875,-0.8125 l -10,6.8438 c -0.33687,-1.1032 -1.8481,-6.05575 -2.71875,-11.5313 -0.48612,-3.0572 -0.72195,-6.08998 -0.375,-8.21875 0.17348,-1.06438 0.5137,-1.88094 0.9375,-2.375 0.4238,-0.49406 0.89556,-0.71937 1.71875,-0.65625 6.05123,0.46403 12.39535,3.72597 17.1875,8.375 4.79215,4.64903 8.021,10.648 8.09375,16.4687 0.0748,5.9851 -3.46737,12.6325 -8.46875,17.7188 -5.00138,5.0863 -11.43624,8.5778 -16.875,8.5625 -0.21858,-6e-4 -0.2781,-0.038 -0.375,-0.1563 -0.0969,-0.1185 -0.19595,-0.3645 -0.25,-0.7187 -0.10809,-0.7084 -0.009,-1.7873 0.1875,-2.875 0.39295,-2.1755 1.15625,-4.375 1.15625,-4.375 0.14699,-0.3788 -0.1876,-0.8542 -0.59375,-0.8437 l -17.6875,0 -0.47457,0.2 -0.22763,0.394 c 0,0 -0.15549,0.7146 -0.4853,2.0621 -0.32981,1.3475 -0.73508,3.1757 -1,5.1562 -0.26492,1.9806 -0.39122,4.1008 -0.1875,6.0313 0.20372,1.9305 0.7394,3.7082 1.9375,4.9063 2.26195,2.2618 5.52882,2.8178 8.84375,2.5624 3.31493,-0.2553 6.72286,-1.3266 9.5,-2.4374 7.98052,-3.1922 17.39591,-7.7688 24.8125,-13.75 7.41659,-5.9813 12.89401,-13.4001 12.78125,-22.2188 -0.11021,-8.61894 -5.66226,-15.68587 -13.0625,-21.3125 -7.40024,-5.62663 -16.70402,-9.89087 -24.53125,-12.90625 -2.78011,-1.07101 -6.22222,-2.18234 -9.5625,-2.46875 -0.83502,-0.0716 -1.68933,-0.0802 -2.5,-0.0312 z"
         id="path4412"
         style="opacity:0.5;fill:#00ff00;fill-opacity:1;fill-rule:nonzero;stroke:none;stroke-width:3;marker-start:none" />
      <g
         transform="translate(109.75678,4.2136974)"
         id="g4420">
        <path
           d="m 40.204829,1018.4638 -25.189418,-12.0097 13.378107,0.5645 c 0,0 -11.358305,-27.63514 -3.055788,-36.65854 3.996285,-4.34327 12.198671,-2.12172 17.706172,0 15.597035,6.00864 36.969254,16.92874 37.182961,33.64184 0.21884,17.1146 -21.291186,29.0557 -37.182961,35.4124 -5.479923,2.1919 -13.532787,4.1733 -17.706172,0 -4.173385,-4.1734 0,-17.7062 0,-17.7062 l 17.706172,0 c 0,0 -3.128145,8.9558 -0.139711,8.9642 11.403368,0.032 26.13425,-14.4331 25.978477,-26.8969 -0.151072,-12.08772 -13.361818,-24.4908 -25.838766,-25.44757 -7.857384,-0.60253 0,24.39367 0,24.39367 l 10.692328,-7.35194 z"
           id="path4217"
           style="fill:url(#radialGradient4341);fill-opacity:1;fill-rule:nonzero;stroke:none;stroke-width:3;marker-start:none" />
        <path
           d="m 48.941674,975.07734 c 10.377924,2.83619 18.399,10.37072 19.530238,11.20251 -6.140268,-7.07493 -15.545709,-10.87531 -19.530238,-11.20251 z"
           id="path3021"
           style="opacity:0.75;fill:#ffffff;fill-opacity:1;stroke:none" />
        <path
           d="m 38.091809,986.17683 3.258548,14.87687 c -1.776927,-4.61359 -3.244488,-9.38186 -3.258548,-14.87687 z"
           id="path3953"
           style="opacity:0.75;fill:#ffffff;fill-opacity:1;stroke:none" />
        <path
           d="m 40.971859,1024.2507 c 0,0 -1.437286,5.4876 0.305305,7.0847 1.821066,1.669 7.403446,-0.326 7.403446,-0.326 0.01234,0.049 -5.72843,3.0077 -7.933075,1.0636 -2.100444,-1.8522 0.195492,-7.8223 0.224324,-7.8223 z"
           id="path3959"
           style="opacity:0.5;fill:#ffffff;fill-opacity:1;stroke:none" />
      </g>
    </g>
  </g>
</svg>
