<?xml version="1.0" encoding="UTF-8" standalone="no"?>
<!-- Created with Inkscape (http://www.inkscape.org/) -->

<svg
   xmlns:osb="http://www.openswatchbook.org/uri/2009/osb"
   xmlns:dc="http://purl.org/dc/elements/1.1/"
   xmlns:cc="http://creativecommons.org/ns#"
   xmlns:rdf="http://www.w3.org/1999/02/22-rdf-syntax-ns#"
   xmlns:svg="http://www.w3.org/2000/svg"
   xmlns="http://www.w3.org/2000/svg"
   xmlns:xlink="http://www.w3.org/1999/xlink"
   xmlns:sodipodi="http://sodipodi.sourceforge.net/DTD/sodipodi-0.dtd"
   xmlns:inkscape="http://www.inkscape.org/namespaces/inkscape"
   width="96"
   height="96"
   id="svg2"
   version="1.1"
   inkscape:version="0.48.3.1 r9886"
   sodipodi:docname="get_iplayer_downloader-inkscape.svg"
   inkscape:export-xdpi="90"
   inkscape:export-ydpi="90">
  <defs
     id="defs4">
    <linearGradient
       id="linearGradient3883">
      <stop
         id="stop3885"
         offset="0"
         style="stop-color:#00ff00;stop-opacity:1" />
      <stop
         id="stop3887"
         offset="1"
         style="stop-color:#00ff00;stop-opacity:0.78431374;" />
    </linearGradient>
    <linearGradient
       id="linearGradient7191">
      <stop
         style="stop-color:#00ff00;stop-opacity:1"
         offset="0"
         id="stop7193" />
      <stop
         style="stop-color:#006500;stop-opacity:1"
         offset="1"
         id="stop7195" />
    </linearGradient>
    <linearGradient
       id="linearGradient7130">
      <stop
         id="stop7132"
         offset="0"
         style="stop-color:#00ff00;stop-opacity:1;" />
      <stop
         id="stop7134"
         offset="1"
         style="stop-color:#00ff00;stop-opacity:0.7846154;" />
    </linearGradient>
    <linearGradient
       id="linearGradient7075"
       osb:paint="solid">
      <stop
         style="stop-color:#00ff00;stop-opacity:1;"
         offset="0"
         id="stop7077" />
    </linearGradient>
    <linearGradient
       id="linearGradient7069"
       osb:paint="solid">
      <stop
         style="stop-color:#000000;stop-opacity:1;"
         offset="0"
         id="stop7071" />
    </linearGradient>
    <linearGradient
       id="linearGradient5617">
      <stop
         style="stop-color:#00ff00;stop-opacity:0.77692306;"
         offset="0"
         id="stop5619" />
      <stop
         style="stop-color:#00ff00;stop-opacity:0;"
         offset="1"
         id="stop5621" />
    </linearGradient>
    <linearGradient
       id="linearGradient5566">
      <stop
         style="stop-color:#00ff00;stop-opacity:1;"
         offset="0"
         id="stop5568" />
      <stop
         style="stop-color:#00ff00;stop-opacity:0.7846154;"
         offset="1"
         id="stop5570" />
    </linearGradient>
    <linearGradient
       id="linearGradient3811">
      <stop
         style="stop-color:#000000;stop-opacity:1;"
         offset="0"
         id="stop3813" />
      <stop
         style="stop-color:#000000;stop-opacity:0.58823532;"
         offset="1"
         id="stop3815" />
    </linearGradient>
    <filter
       inkscape:collect="always"
       id="filter3799">
      <feGaussianBlur
         inkscape:collect="always"
         stdDeviation="2.125"
         id="feGaussianBlur3801" />
    </filter>
    <radialGradient
       inkscape:collect="always"
       xlink:href="#linearGradient7191"
       id="radialGradient3859"
       gradientUnits="userSpaceOnUse"
       gradientTransform="matrix(-3.9255828,1.0518571,-0.84411413,-3.1502765,1149.0197,3992.299)"
       cx="65.861969"
       cy="979.21265"
       fx="65.861969"
       fy="979.21265"
       r="33.959488" />
    <linearGradient
       inkscape:collect="always"
       xlink:href="#linearGradient3811"
       id="linearGradient4416"
       gradientUnits="userSpaceOnUse"
       gradientTransform="translate(0.1219651,956.36218)"
       x1="50"
       y1="52"
       x2="49.959759"
       y2="6.6488934" />
    <linearGradient
       inkscape:collect="always"
       xlink:href="#linearGradient3811"
       id="linearGradient3801"
       gradientUnits="userSpaceOnUse"
       gradientTransform="translate(0.1219651,956.36218)"
       x1="50"
       y1="52"
       x2="49.959759"
       y2="6.6488934" />
    <linearGradient
       inkscape:collect="always"
       xlink:href="#linearGradient3811"
       id="linearGradient4322"
       gradientUnits="userSpaceOnUse"
       gradientTransform="translate(0.1219651,956.36218)"
       x1="50"
       y1="52"
       x2="49.959759"
       y2="6.6488934" />
    <radialGradient
       inkscape:collect="always"
       xlink:href="#linearGradient7191"
       id="radialGradient4324"
       gradientUnits="userSpaceOnUse"
       gradientTransform="matrix(-3.9255828,1.0518571,-0.84411413,-3.1502765,1149.0197,3992.299)"
       cx="65.861969"
       cy="979.21265"
       fx="65.861969"
       fy="979.21265"
       r="33.959488" />
    <radialGradient
       inkscape:collect="always"
       xlink:href="#linearGradient7191"
       id="radialGradient3059"
       gradientUnits="userSpaceOnUse"
       gradientTransform="matrix(-1.5850338,3.2238379,-3.9322394,-1.9333272,4018.7917,2635.8004)"
       cx="72.950218"
       cy="984.60706"
       fx="72.950218"
       fy="984.60706"
       r="33.959488" />
    <radialGradient
       inkscape:collect="always"
       xlink:href="#linearGradient7191"
       id="radialGradient3041"
       gradientUnits="userSpaceOnUse"
       gradientTransform="matrix(-1.5850338,3.2238379,-3.9322394,-1.9333272,4018.7917,2635.8004)"
       cx="72.950218"
       cy="984.60706"
       fx="72.950218"
       fy="984.60706"
       r="33.959488" />
    <radialGradient
       inkscape:collect="always"
       xlink:href="#linearGradient7191"
       id="radialGradient3049"
       gradientUnits="userSpaceOnUse"
       gradientTransform="matrix(-1.5850338,3.2238379,-3.9322394,-1.9333272,4018.7917,2635.8004)"
       cx="72.950218"
       cy="984.60706"
       fx="72.950218"
       fy="984.60706"
       r="33.959488" />
    <radialGradient
       inkscape:collect="always"
       xlink:href="#linearGradient7191"
       id="radialGradient3842"
       gradientUnits="userSpaceOnUse"
       gradientTransform="matrix(-1.5850338,3.2238379,-3.9322394,-1.9333272,4018.7917,2635.8004)"
       cx="72.950218"
       cy="984.60706"
       fx="72.950218"
       fy="984.60706"
       r="33.959488" />
    <radialGradient
       inkscape:collect="always"
       xlink:href="#linearGradient7191"
       id="radialGradient3050"
       gradientUnits="userSpaceOnUse"
       gradientTransform="matrix(-1.5850338,3.2238379,-3.9322394,-1.9333272,4018.7917,2635.8004)"
       cx="72.950218"
       cy="984.60706"
       fx="72.950218"
       fy="984.60706"
       r="33.959488" />
  </defs>
  <sodipodi:namedview
     id="base"
     pagecolor="#ffffff"
     bordercolor="#666666"
     borderopacity="1.0"
     inkscape:pageopacity="0.0"
     inkscape:pageshadow="2"
     inkscape:zoom="7.8541667"
     inkscape:cx="48"
     inkscape:cy="48"
     inkscape:document-units="px"
     inkscape:current-layer="layer1"
     showgrid="false"
     inkscape:window-width="1280"
     inkscape:window-height="949"
     inkscape:window-x="0"
     inkscape:window-y="24"
     inkscape:window-maximized="1"
     showguides="false">
    <inkscape:grid
       type="xygrid"
       id="grid3023"
       empspacing="5"
       visible="true"
       enabled="true"
       snapvisiblegridlinesonly="true" />
  </sodipodi:namedview>
  <metadata
     id="metadata7">
    <rdf:RDF>
      <cc:Work
         rdf:about="">
        <dc:format>image/svg+xml</dc:format>
        <dc:type
           rdf:resource="http://purl.org/dc/dcmitype/StillImage" />
        <dc:title></dc:title>
      </cc:Work>
    </rdf:RDF>
  </metadata>
  <g
     inkscape:label="Layer 1"
     inkscape:groupmode="layer"
     id="layer1"
     transform="translate(0,-956.36218)">
    <g
       id="g3797"
       transform="translate(-0.0427091,-0.00109518)">
      <rect
         style="opacity:0.5;fill:#000000;fill-opacity:1;stroke:none;filter:url(#filter3799)"
         id="rect3797"
         width="85"
         height="85"
         x="7.5855131"
         y="963.94165"
         rx="6"
         ry="6" />
      <path
         inkscape:connector-curvature="0"
         id="rect3027"
         d="m 11.121965,962.36218 c 24.53813,0.0206 49.078321,-0.0411 73.615161,0.0309 3.787699,0.25368 5.911498,4.17549 5.384839,7.65205 -0.02055,23.97716 0.04112,47.95637 -0.03086,71.93217 -0.253684,3.7877 -4.175495,5.9115 -7.65205,5.3849 -23.977159,-0.021 -47.956378,0.041 -71.932247,-0.031 -3.7876989,-0.2537 -5.9114978,-4.1755 -5.3848391,-7.652 0.020554,-23.9772 -0.041123,-47.95638 0.030864,-71.93225 0.2430537,-2.98838 2.970815,-5.44848 5.9691361,-5.38484 z"
         style="fill:url(#linearGradient4322);fill-opacity:1;stroke:none" />
    </g>
    <g
       id="g3892"
       transform="matrix(0.9,0,0,0.9,4.7534028,100.50711)">
      <path
         d="m 33.75,966.40625 c -3.540188,-0.19117 -7.141189,0.55867 -9.53125,3.15625 -2.424575,2.6351 -3.299318,6.42547 -3.40625,10.46875 -0.106956,4.0442 0.582894,8.44462 1.5,12.53125 1.460303,6.50712 3.20992,11.2067 3.96875,13.1563 L 15,1005.2188 c 4.04e-4,0 -0.06291,-10e-5 -0.0625,0 4.05e-4,0 -0.03166,0 -0.03125,0 4.05e-4,-10e-5 -0.0629,0 -0.0625,0 4.04e-4,-10e-5 -0.0629,0 -0.0625,0 4.03e-4,-10e-5 -0.0629,0 -0.0625,0 4e-4,-10e-5 -0.0629,0.031 -0.0625,0.031 3.97e-4,-10e-5 -0.06289,10e-5 -0.0625,0 3.94e-4,-10e-5 -0.06289,0.031 -0.0625,0.031 3.89e-4,-10e-5 -0.06288,2e-4 -0.0625,0 3.84e-4,-10e-5 -0.06288,0.031 -0.0625,0.031 3.78e-4,-10e-5 -0.03162,0.031 -0.03125,0.031 3.71e-4,-2e-4 -0.06286,0.031 -0.0625,0.031 3.64e-4,-2e-4 -0.06286,2e-4 -0.0625,0 3.56e-4,-2e-4 -0.06285,0.032 -0.0625,0.031 3.47e-4,-2e-4 -0.03159,0.031 -0.03125,0.031 3.38e-4,-2e-4 -0.06283,0.063 -0.0625,0.062 3.28e-4,-2e-4 -0.03157,0.032 -0.03125,0.031 3.18e-4,-2e-4 -0.06281,0.032 -0.0625,0.031 3.07e-4,-3e-4 -0.03154,0.032 -0.03125,0.031 2.95e-4,-3e-4 -0.06278,0.063 -0.0625,0.062 2.83e-4,-2e-4 -0.03152,0.032 -0.03125,0.031 2.7e-4,-3e-4 -0.03151,0.032 -0.03125,0.031 2.57e-4,-4e-4 -0.03149,0.063 -0.03125,0.062 2.43e-4,-3e-4 -0.06273,0.063 -0.0625,0.063 2.29e-4,-4e-4 -0.03146,0.032 -0.03125,0.031 2.14e-4,-3e-4 -0.03145,0.063 -0.03125,0.062 1.99e-4,-4e-4 -0.03143,0.063 -0.03125,0.062 1.84e-4,-4e-4 -1.68e-4,0.032 0,0.031 1.68e-4,-3e-4 -0.0314,0.063 -0.03125,0.063 1.52e-4,-4e-4 -0.03139,0.063 -0.03125,0.062 1.36e-4,-3e-4 -0.03137,0.063 -0.03125,0.063 1.19e-4,-4e-4 -1.03e-4,0.063 0,0.062 1.03e-4,-3e-4 -8.6e-5,0.063 0,0.063 8.6e-5,-4e-4 -0.03132,0.032 -0.03125,0.031 6.9e-5,-4e-4 -5.1e-5,0.063 0,0.062 5.1e-5,-4e-4 -3.4e-5,0.063 0,0.062 3.4e-5,-4e-4 -1.7e-5,0.063 0,0.062 1.7e-5,-4e-4 -0.03125,0.063 -0.03125,0.062 -10e-7,-4e-4 0.03127,0.063 0.03125,0.062 -1.8e-5,-4e-4 3.5e-5,0.063 0,0.062 -3.5e-5,-4e-4 5.3e-5,0.063 0,0.062 -5.3e-5,-4e-4 7e-5,0.063 0,0.062 -7e-5,-4e-4 0.03134,0.063 0.03125,0.062 -8.7e-5,-4e-4 1.04e-4,0.063 0,0.062 -1.04e-4,-4e-4 0.03137,0.063 0.03125,0.062 -1.21e-4,-4e-4 1.37e-4,0.032 0,0.031 -1.37e-4,-4e-4 0.0314,0.063 0.03125,0.062 -1.53e-4,-3e-4 0.03142,0.063 0.03125,0.063 -1.69e-4,-4e-4 1.85e-4,0.063 0,0.062 -1.85e-4,-3e-4 0.03145,0.032 0.03125,0.031 -2e-4,-4e-4 0.03147,0.063 0.03125,0.062 -2.15e-4,-3e-4 0.03148,0.063 0.03125,0.062 -2.3e-4,-3e-4 0.06274,0.032 0.0625,0.031 -2.44e-4,-4e-4 0.03151,0.063 0.03125,0.062 -2.58e-4,-3e-4 0.03152,0.032 0.03125,0.031 -2.71e-4,-3e-4 0.03153,0.063 0.03125,0.062 -2.84e-4,-3e-4 0.0628,0.032 0.0625,0.031 -2.96e-4,-2e-4 0.03156,0.032 0.03125,0.031 -3.07e-4,-3e-4 0.06282,0.063 0.0625,0.062 -3.18e-4,-3e-4 0.03158,0.032 0.03125,0.031 -3.29e-4,-2e-4 0.06284,0.031 0.0625,0.031 -3.39e-4,-2e-4 0.06285,0.032 0.0625,0.031 -3.48e-4,-3e-4 0.03161,0.031 0.03125,0.031 -3.57e-4,-2e-4 0.06287,0.031 0.0625,0.031 l 25.1875,12 c -4e-4,-10e-5 0.06291,0.031 0.0625,0.031 -4.09e-4,-2e-4 0.06292,2e-4 0.0625,0 -4.17e-4,-2e-4 0.06292,0.031 0.0625,0.031 -4.24e-4,-2e-4 0.06293,0.031 0.0625,0.031 -4.3e-4,-10e-5 0.06294,10e-5 0.0625,0 -4.35e-4,-10e-5 0.06294,0.031 0.0625,0.031 -4.39e-4,0 0.06294,10e-5 0.0625,0 -4.42e-4,0 0.06294,10e-5 0.0625,0 -4.44e-4,0 0.06294,10e-5 0.0625,0 -4.45e-4,0 0.09419,0 0.09375,0 -4.45e-4,10e-5 0.06294,0 0.0625,0 -4.45e-4,10e-5 0.06294,0 0.0625,0 -4.43e-4,10e-5 0.06294,0 0.0625,0 -4.4e-4,10e-5 0.06294,-0.031 0.0625,-0.031 -4.36e-4,10e-5 0.06293,-10e-5 0.0625,0 -4.31e-4,10e-5 0.06292,-0.031 0.0625,-0.031 -4.25e-4,10e-5 0.06292,-2e-4 0.0625,0 -4.19e-4,10e-5 0.06291,-0.031 0.0625,-0.031 -4.11e-4,2e-4 0.0629,-0.031 0.0625,-0.031 -4.03e-4,2e-4 0.06289,-0.031 0.0625,-0.031 -3.93e-4,2e-4 0.06288,-0.032 0.0625,-0.031 -3.83e-4,2e-4 0.06287,-0.031 0.0625,-0.031 -3.72e-4,2e-4 0.03161,-0.032 0.03125,-0.031 -3.6e-4,3e-4 0.06285,-0.063 0.0625,-0.062 -3.47e-4,2e-4 0.06283,-0.032 0.0625,-0.031 -3.33e-4,3e-4 0.03157,-0.063 0.03125,-0.062 -3.19e-4,3e-4 0.0628,-0.032 0.0625,-0.031 -3.04e-4,3e-4 0.03154,-0.063 0.03125,-0.063 -2.88e-4,4e-4 0.06277,-0.032 0.0625,-0.031 -2.72e-4,4e-4 0.03151,-0.063 0.03125,-0.062 -2.55e-4,4e-4 0.03149,-0.063 0.03125,-0.062 -1.42e-4,2e-4 0.02135,-0.015 0.03125,-0.031 0.0066,-0.011 8.8e-5,-0.031 0,-0.031 L 54.875,996.25 a 0.71991138,0.71991138 0 0 0 0,-0.0312 c -3.92e-4,6.9e-4 0.06283,-0.0945 0.0625,-0.0937 -3.32e-4,7.2e-4 0.03152,-0.12575 0.03125,-0.125 -2.7e-4,7.5e-4 0.03146,-0.0945 0.03125,-0.0937 -2.06e-4,7.7e-4 0.03139,-0.12578 0.03125,-0.125 -1.41e-4,7.8e-4 0.03132,-0.12579 0.03125,-0.125 -7.4e-5,7.9e-4 7e-6,-0.0946 0,-0.0937 -7e-6,8e-4 -6e-5,-0.12579 0,-0.125 6e-5,7.9e-4 -0.03138,-0.12579 -0.03125,-0.125 1.26e-4,7.9e-4 -1.92e-4,-0.12577 0,-0.125 1.92e-4,7.7e-4 -0.06276,-0.0945 -0.0625,-0.0937 2.56e-4,7.5e-4 -0.03157,-0.12573 -0.03125,-0.125 3.19e-4,7.3e-4 -0.06288,-0.0945 -0.0625,-0.0937 3.79e-4,7e-4 -0.06294,-0.12566 -0.0625,-0.125 4.37e-4,6.6e-4 -0.06299,-0.0944 -0.0625,-0.0937 4.91e-4,6.3e-4 -0.06304,-0.0943 -0.0625,-0.0937 5.42e-4,5.8e-4 -0.09434,-0.063 -0.09375,-0.0625 5.89e-4,5.3e-4 -0.09438,-0.0942 -0.09375,-0.0937 6.32e-4,4.8e-4 -0.09442,-0.0629 -0.09375,-0.0625 6.71e-4,4.3e-4 -0.09445,-0.0629 -0.09375,-0.0625 7.04e-4,3.7e-4 -0.125733,-0.0628 -0.125,-0.0625 7.33e-4,3.1e-4 -0.09451,-0.0315 -0.09375,-0.0312 7.57e-4,2.5e-4 -0.125775,-0.0314 -0.125,-0.0312 7.75e-4,1.8e-4 -0.125787,-0.0314 -0.125,-0.0312 7.87e-4,1.2e-4 -0.09454,-5e-5 -0.09375,0 7.94e-4,5e-5 -0.125795,2e-5 -0.125,0 7.95e-4,-2e-5 -0.125791,9e-5 -0.125,0 7.91e-4,-9e-5 -0.125781,0.0314 -0.125,0.0312 7.81e-4,-1.5e-4 -0.125765,0.0315 -0.125,0.0312 7.65e-4,-2.2e-4 -0.09449,0.0315 -0.09375,0.0312 7.44e-4,-2.8e-4 -0.125718,0.0316 -0.125,0.0312 7.18e-4,-3.4e-4 -0.09444,0.0629 -0.09375,0.0625 6.87e-4,-4e-4 -0.0944,0.063 -0.09375,0.0625 L 44,1000.4688 c -0.4073,-2.04992 -1.319318,-6.63696 -1.90625,-11.8438 -0.373304,-3.31168 -0.525502,-6.48881 -0.28125,-8.25 0.04923,-0.35497 0.144671,-0.60025 0.21875,-0.8125 0.0219,0.0164 0.0087,0.0125 0.03125,0.0312 l 29.375,24.37505 -28.03125,24.5 c 0.02899,-0.4405 -9.48e-4,-0.6825 0.0625,-1.1876 0.150319,-1.1964 0.376069,-2.463 0.5625,-3.4374 0.09322,-0.4873 0.158438,-0.9295 0.21875,-1.2188 0.03016,-0.1447 0.07706,-0.2349 0.09375,-0.3125 0.01669,-0.078 0,-0.125 0,-0.125 -1.18e-4,5e-4 0.03134,-0.063 0.03125,-0.062 -8.8e-5,5e-4 5.8e-5,-0.094 0,-0.094 -5.8e-5,6e-4 0.03128,-0.094 0.03125,-0.094 -2.8e-5,5e-4 -2e-6,-0.063 0,-0.062 2e-6,5e-4 -0.03128,-0.094 -0.03125,-0.094 3.3e-5,6e-4 -6.3e-5,-0.063 0,-0.062 6.3e-5,5e-4 -9.3e-5,-0.094 0,-0.094 9.3e-5,5e-4 -0.03137,-0.063 -0.03125,-0.062 1.22e-4,5e-4 -1.51e-4,-0.094 0,-0.094 1.51e-4,5e-4 -0.03143,-0.063 -0.03125,-0.063 1.8e-4,6e-4 -0.03146,-0.063 -0.03125,-0.062 2.08e-4,4e-4 -0.03149,-0.094 -0.03125,-0.094 2.36e-4,5e-4 -0.03151,-0.063 -0.03125,-0.062 2.62e-4,5e-4 -0.06279,-0.063 -0.0625,-0.062 2.88e-4,4e-4 -0.03156,-0.063 -0.03125,-0.062 3.13e-4,4e-4 -0.06284,-0.063 -0.0625,-0.062 3.37e-4,4e-4 -0.03161,-0.063 -0.03125,-0.062 3.6e-4,4e-4 -0.06288,-0.063 -0.0625,-0.062 3.82e-4,4e-4 -0.0629,-0.063 -0.0625,-0.062 4.02e-4,4e-4 -0.06292,-0.063 -0.0625,-0.062 4.21e-4,3e-4 -0.06294,-0.032 -0.0625,-0.031 4.39e-4,3e-4 -0.06296,-0.032 -0.0625,-0.031 4.56e-4,3e-4 -0.06297,-0.063 -0.0625,-0.062 4.71e-4,3e-4 -0.09423,-0.032 -0.09375,-0.031 4.84e-4,2e-4 -0.063,-0.031 -0.0625,-0.031 4.96e-4,2e-4 -0.06301,-0.031 -0.0625,-0.031 5.06e-4,2e-4 -0.09427,-10e-5 -0.09375,0 5.15e-4,2e-4 -0.06302,-0.031 -0.0625,-0.031 5.22e-4,10e-5 -0.09428,-0.031 -0.09375,-0.031 5.28e-4,0 -0.06303,-10e-5 -0.0625,0 5.31e-4,0 -0.09428,-10e-5 -0.09375,0 5.33e-4,0 -0.06303,0 -0.0625,0 l -17.71875,0 c 7.34e-4,0 -0.09448,0 -0.09375,0 7.32e-4,-10e-5 -0.125725,10e-5 -0.125,0 7.25e-4,-2e-4 -0.09446,0.031 -0.09375,0.031 7.14e-4,-2e-4 -0.125699,0.032 -0.125,0.031 6.99e-4,-2e-4 -0.09443,0.032 -0.09375,0.031 6.79e-4,-3e-4 -0.09441,0.063 -0.09375,0.062 6.56e-4,-3e-4 -0.09438,0.032 -0.09375,0.031 6.28e-4,-3e-4 -0.09435,0.063 -0.09375,0.063 5.97e-4,-5e-4 -0.09431,0.094 -0.09375,0.094 5.62e-4,-5e-4 -0.09427,0.063 -0.09375,0.062 5.24e-4,-5e-4 -0.06298,0.063 -0.0625,0.062 4.82e-4,-6e-4 -0.06294,0.094 -0.0625,0.094 4.38e-4,-5e-4 -0.06289,0.094 -0.0625,0.094 3.91e-4,-6e-4 -0.06284,0.094 -0.0625,0.094 3.41e-4,-7e-4 -0.06279,0.094 -0.0625,0.094 2.9e-4,-7e-4 -0.03149,0.1257 -0.03125,0.125 0,0 -1.084765,3.4841 -1.625,7.5313 -0.270324,2.0251 -0.401132,4.1911 -0.1875,6.2187 0.212975,2.0214 0.759472,4.0094 2.15625,5.4063 2.468523,2.4682 6.081985,3.2925 9.625,3.1562 3.542041,-0.136 7.102014,-1.228 9.84375,-2.9688 6.73141,-4.2739 15.983227,-9.817 23.65625,-16.0312 7.670643,-6.2122 13.979435,-13.0801 14.1875,-20.5312 0.206612,-7.39905 -5.372704,-13.7714 -12.78125,-19.43755 -7.409076,-5.66655 -16.863258,-10.7575 -25.125,-15.46875 -2.772794,-1.58118 -6.366692,-2.71512 -9.90625,-2.90625 z"
         id="path3047"
         style="opacity:0.5;fill:url(#radialGradient3050);fill-opacity:1;fill-rule:nonzero;stroke:none;stroke-width:3;marker-start:none"
         inkscape:original="M 33.71875 967.125 C 30.307636 966.9408 26.941688 967.68052 24.75 970.0625 C 22.502075 972.50561 21.635707 976.1128 21.53125 980.0625 C 21.426793 984.0122 22.090561 988.35378 23 992.40625 C 24.621109 999.62992 26.799114 1005.1825 27.3125 1006.4688 L 14.96875 1005.9375 A 0.69155586 0.69155586 0 0 0 14.625 1007.25 L 39.8125 1019.25 A 0.69155586 0.69155586 0 0 0 40.71875 1018.9688 L 54.25 995.875 A 0.69155586 0.69155586 0 0 0 53.25 994.96875 L 43.46875 1001.6875 C 43.184202 1000.2695 42.039667 994.6152 41.375 988.71875 C 40.998683 985.38034 40.828777 982.19185 41.09375 980.28125 C 41.226236 979.32595 41.533488 978.75174 41.65625 978.65625 C 41.717631 978.60851 41.688155 978.59866 41.8125 978.625 C 41.936845 978.65134 42.205076 978.7604 42.53125 979.03125 L 72.5625 1003.9375 L 42.59375 1030.125 C 42.52516 1029.507 42.599754 1028.3834 42.75 1027.1875 C 43.056869 1024.7449 43.65625 1022.0314 43.65625 1022.0312 A 0.69155586 0.69155586 0 0 0 42.96875 1021.1875 L 25.25 1021.1875 A 0.69155586 0.69155586 0 0 0 24.59375 1021.6562 C 24.59375 1021.6562 23.530741 1025.0865 23 1029.0625 C 22.73463 1031.0505 22.607867 1033.1828 22.8125 1035.125 C 23.017133 1037.0672 23.53366 1038.8774 24.75 1040.0938 C 27.023616 1042.3672 30.430699 1043.1625 33.84375 1043.0312 C 37.256801 1042.9002 40.729238 1041.8475 43.34375 1040.1875 C 50.088541 1035.9051 59.321488 1030.3555 66.9375 1024.1875 C 74.553512 1018.0195 80.646895 1011.2372 80.84375 1004.1875 C 81.03982 997.16602 75.683082 990.95696 68.34375 985.34375 C 61.004418 979.73054 51.585488 974.65516 43.3125 969.9375 C 40.645557 968.41668 37.129768 967.30919 33.71875 967.125 z "
         inkscape:radius="0.71983939"
         sodipodi:type="inkscape:offset" />
      <g
         id="g3848">
        <path
           style="fill:url(#radialGradient3049);fill-opacity:1;fill-rule:nonzero;stroke:none;stroke-width:3;marker-start:none"
           d="m 40.130519,1018.6285 -25.189418,-12.0097 13.378107,0.5645 c 0,0 -11.358305,-27.63517 -3.055788,-36.65857 3.996285,-4.34327 12.579147,-2.92368 17.706172,0 16.566024,9.44676 37.554521,20.33583 37.182961,33.64187 -0.37156,13.306 -23.667852,26.8314 -37.182961,35.4124 -4.982592,3.1635 -13.532787,4.1733 -17.706172,0 -4.173385,-4.1734 0,-17.7062 0,-17.7062 l 17.706172,0 c 0,0 -2.390214,10.9304 -0.139711,8.9642 l 30.78567,-26.8969 -30.645959,-25.4476 c -6.062746,-5.03435 0,24.3937 0,24.3937 l 10.692328,-7.35197 z"
           id="path4217"
           inkscape:connector-curvature="0"
           sodipodi:nodetypes="cccaszsaccscsccc" />
        <path
           style="opacity:0.5;fill:#ffffff;fill-opacity:1;stroke:none"
           d="m 67.160314,1010.1986 c -5.275449,5.7525 -10.96453,11.1602 -17.677614,15.7146 z"
           id="path3021"
           inkscape:connector-curvature="0"
           sodipodi:nodetypes="ccc" />
        <path
           sodipodi:nodetypes="ccc"
           inkscape:connector-curvature="0"
           id="path3953"
           d="m 26.297163,1022.3658 15.229445,-0.029 c -4.88415,0.3975 -9.854445,0.6214 -15.229445,0.029 z"
           style="opacity:0.65;fill:#ffffff;fill-opacity:1;stroke:none"
           inkscape:transform-center-x="-4.4999293"
           inkscape:transform-center-y="1.3640512" />
        <path
           style="opacity:0.75;fill:#ffffff;fill-opacity:1;stroke:none"
           d="m 35.501709,968.71934 c -0.238324,-0.23821 -5.365832,0.40555 -7.595146,1.73797 -1.73185,1.0351 -4.115493,3.90075 -3.983488,4.55724 -0.06677,-0.004 0.790849,-3.69961 3.580895,-5.38327 2.790046,-1.68366 8.001888,-1.06445 7.997739,-0.91194 z"
           id="path3959"
           inkscape:connector-curvature="0"
           sodipodi:nodetypes="caczc" />
        <path
           inkscape:transform-center-y="0.76135091"
           inkscape:transform-center-x="-2.3943085"
           style="opacity:0.75;fill:#ffffff;fill-opacity:1;stroke:none"
           d="m 17.817793,1007.2589 8.183726,0.2885 c -2.816887,0.1951 -5.639031,0.2701 -8.183726,-0.2885 z"
           id="path3840"
           inkscape:connector-curvature="0"
           sodipodi:nodetypes="ccc" />
        <path
           sodipodi:nodetypes="ccc"
           inkscape:connector-curvature="0"
           id="path3853"
           d="m 44.570547,1002.3548 6.719522,-4.68028 c -1.948647,1.74247 -4.019565,3.40928 -6.719522,4.68028 z"
           style="opacity:0.75;fill:#ffffff;fill-opacity:1;stroke:none"
           inkscape:transform-center-x="-2.3365695"
           inkscape:transform-center-y="-0.875225" />
      </g>
    </g>
  </g>
</svg>
